<svg width="28" height="145" viewBox="0 0 28 145" fill="none" xmlns="http://www.w3.org/2000/svg">
<g clip-path="url(#clip0_1_6)">
<path d="M6.20963 1.44126L6.35318 2.07126L1.7403 3.20126L0.209045 -3.61874L4.68795 -4.70874L4.82194 -4.08874L0.993812 -3.15874L1.53932 -0.73874L4.90807 -1.56874L5.05162 -0.94874L1.6733 -0.12874L2.24752 2.40126L6.20963 1.44126Z" fill="#303030"/>
<path d="M0.209045 3.50117L0.850256 3.20117L3.37682 8.98117L6.79342 7.36117L7.04225 7.94117L2.98444 9.87117L0.209045 3.50117Z" fill="#303030"/>
<path d="M0.209045 10.3211L0.783265 9.87109L4.42955 14.9711L7.43463 12.6211L7.7983 13.1311L4.22858 15.9211L0.209045 10.3211Z" fill="#303030"/>
<path d="M0.620569 20.9797C0.39458 20.6156 0.253618 20.2011 0.209045 19.7697L0.773694 19.5097C0.816042 19.9061 0.940115 20.2882 1.13737 20.6297C1.35115 21.0126 1.63008 21.3515 1.96041 21.6297C2.30154 21.971 2.73682 22.1914 3.20455 22.2597C3.37356 22.2761 3.54383 22.2491 3.70059 22.1811C3.85736 22.1132 3.99589 22.0063 4.10416 21.8697C4.18354 21.7782 4.24405 21.6706 4.28192 21.5536C4.31978 21.4366 4.33421 21.3128 4.32428 21.1897C4.29263 20.946 4.21452 20.7113 4.09459 20.4997C3.91474 20.1928 3.71988 19.8957 3.5108 19.6097C3.25601 19.2609 3.02572 18.8933 2.82174 18.5097C2.66583 18.2226 2.58035 17.8997 2.57291 17.5697C2.57225 17.1991 2.70556 16.842 2.94616 16.5697C3.15472 16.3058 3.42992 16.1083 3.74049 15.9997C4.0875 15.895 4.45579 15.895 4.8028 15.9997C5.24989 16.1525 5.66317 16.3973 6.01823 16.7197C6.31287 16.9758 6.57356 17.2717 6.79342 17.5997C6.99672 17.9039 7.14884 18.242 7.24323 18.5997L6.69772 18.8997C6.60258 18.5663 6.46067 18.2496 6.27663 17.9597C6.0933 17.7008 5.87765 17.4688 5.63542 17.2697C5.29935 16.9299 4.8654 16.7155 4.40084 16.6597C4.23012 16.6448 4.05853 16.6744 3.9015 16.746C3.74447 16.8176 3.60692 16.9288 3.50124 17.0697C3.41983 17.1598 3.35802 17.2672 3.32003 17.3845C3.28204 17.5019 3.26877 17.6265 3.28112 17.7497C3.30352 18.0019 3.38218 18.245 3.5108 18.4597C3.64479 18.6897 3.8362 18.9897 4.09459 19.3497C4.35075 19.6905 4.58114 20.0516 4.78366 20.4297C4.94291 20.7159 5.0317 21.0388 5.04206 21.3697C5.04272 21.7403 4.90941 22.0974 4.66881 22.3697C4.45947 22.6372 4.18014 22.8353 3.86491 22.9397C3.51853 23.049 3.14898 23.049 2.8026 22.9397C2.35243 22.7874 1.93594 22.5426 1.5776 22.2197C1.19129 21.8684 0.867313 21.4486 0.620569 20.9797V20.9797Z" fill="#303030"/>
<path d="M5.19518 25.3917L3.84576 23.3917L4.34342 23.0217L7.45377 27.6617L6.95611 28.0317L5.6067 26.0317L0.610997 29.6817L0.209045 29.0717L5.19518 25.3917Z" fill="#303030"/>
<path d="M5.46315 31.5016L3.23326 34.6116L4.1903 36.4016L3.75006 37.0216L0.209045 30.2716L0.620569 29.6816L7.82701 31.3016L7.37721 31.9216L5.46315 31.5016ZM4.83151 31.3416L1.00338 30.4416L2.91744 34.0316L4.83151 31.3416Z" fill="#303030"/>
<path d="M4.0225 38.3717L4.17563 37.6817L6.66391 38.2717C6.8692 38.6679 6.99613 39.1032 7.03715 39.5517C7.08465 40.0268 7.05553 40.5068 6.95102 40.9717C6.82713 41.617 6.54333 42.217 6.12797 42.7117C5.7328 43.1788 5.22326 43.5245 4.65414 43.7117C4.06757 43.9007 3.4437 43.9249 2.84535 43.7817C2.2457 43.6464 1.69296 43.3421 1.24711 42.9017C0.808093 42.4787 0.492843 41.9344 0.337933 41.3317C0.166083 40.6772 0.166083 39.9863 0.337933 39.3317C0.440792 38.8418 0.625451 38.3747 0.883441 37.9517C1.12762 37.567 1.4556 37.2483 1.84047 37.0217L2.185 37.5717C1.85512 37.7834 1.57195 38.0657 1.35419 38.4001C1.13643 38.7345 0.989027 39.1134 0.921722 39.5117C0.803037 40.0291 0.812921 40.5695 0.950433 41.0817C1.07903 41.5681 1.33411 42.0077 1.68735 42.3517C2.05042 42.7184 2.50468 42.9714 2.99848 43.0817C3.47731 43.2222 3.98391 43.2222 4.46274 43.0817C4.92143 42.9235 5.33342 42.6446 5.65903 42.2717C5.99365 41.869 6.22425 41.3837 6.32895 40.8617C6.48641 40.2285 6.44617 39.5593 6.2141 38.9517L4.0225 38.3717Z" fill="#303030"/>
<path d="M0.355577 46.3555C0.526428 45.7512 0.858369 45.2101 1.31261 44.7955C1.75698 44.3797 2.2983 44.0934 2.88214 43.9655C3.4773 43.8228 4.098 43.8469 4.68136 44.0355C5.24441 44.23 5.74913 44.5747 6.14561 45.0355C6.55789 45.5311 6.8384 46.1311 6.95908 46.7755C7.11761 47.4082 7.11761 48.0729 6.95908 48.7055C6.78354 49.3077 6.45237 49.8475 6.00205 50.2655C5.54541 50.6926 4.99075 50.9889 4.39204 51.1256C3.79333 51.2622 3.17095 51.2347 2.58546 51.0455C2.0181 50.8605 1.51114 50.5143 1.1212 50.0455C0.710788 49.5525 0.430414 48.9563 0.307726 48.3155C0.161532 47.6688 0.178017 46.9936 0.355577 46.3555V46.3555ZM1.60929 49.5355C1.92882 49.9158 2.34288 50.1962 2.80558 50.3455C3.28249 50.4901 3.78649 50.5072 4.27139 50.3954C4.75629 50.2836 5.20657 50.0464 5.58097 49.7055C5.9342 49.366 6.19506 48.9347 6.33702 48.4555C6.47046 47.9496 6.48354 47.4173 6.37512 46.9049C6.2667 46.3925 6.04007 45.9155 5.71495 45.5155C5.38138 45.1335 4.95461 44.8535 4.48038 44.7055C3.99747 44.5715 3.48946 44.5715 3.00655 44.7055C2.51929 44.8033 2.06821 45.0424 1.70499 45.3955C1.34851 45.7363 1.08721 46.1718 0.948938 46.6556C0.818996 47.1633 0.818996 47.6978 0.948938 48.2055C1.05376 48.7017 1.28147 49.1603 1.60929 49.5355V49.5355Z" fill="#303030"/>
<path d="M20.1536 52.4338L18.8999 51.4338C18.7039 51.268 18.4533 51.1897 18.2024 51.2159C17.9515 51.2421 17.7207 51.3707 17.56 51.5738L0.209045 72.3938L0.477015 72.7038L4.77408 68.5638C4.63088 68.5035 4.51239 68.3928 4.4392 68.2508C4.36601 68.1088 4.34275 67.9445 4.37346 67.7864C4.40417 67.6283 4.48692 67.4865 4.60731 67.3855C4.7277 67.2846 4.87814 67.2309 5.03248 67.2338C5.17167 67.2337 5.30719 67.2804 5.41915 67.3667C5.53111 67.4531 5.61362 67.5748 5.65455 67.7138L11.3202 62.2238C11.4069 62.1507 11.515 62.1109 11.6264 62.1109C11.7378 62.1109 11.8459 62.1507 11.9327 62.2238L12.2198 62.4438C12.3169 62.5165 12.4366 62.5486 12.5553 62.5338C12.6739 62.519 12.783 62.4584 12.861 62.3638L20.2684 53.6838C20.3471 53.5976 20.4072 53.4947 20.4445 53.3821C20.4818 53.2696 20.4955 53.1499 20.4846 53.0313C20.4737 52.9127 20.4385 52.798 20.3814 52.6949C20.3242 52.5918 20.2466 52.5027 20.1536 52.4338V52.4338Z" fill="#303030"/>
<path d="M26.4221 72.7039C22.6251 75.5268 18.3714 77.6103 13.8659 78.8539C9.3941 80.0422 4.81831 80.7525 0.209045 80.9739C0.301856 81.6841 0.468732 82.3816 0.7067 83.0539C3.30982 85.5139 22.9098 81.3139 26.7379 76.4539C27.5514 75.4439 26.4221 72.7039 26.4221 72.7039ZM3.14713 82.9739C3.01842 82.9739 2.8926 82.934 2.78558 82.8593C2.67855 82.7845 2.59514 82.6783 2.54589 82.5541C2.49663 82.4298 2.48374 82.2931 2.50885 82.1612C2.53396 82.0293 2.59595 81.9081 2.68696 81.813C2.77797 81.7179 2.89393 81.6532 3.02017 81.6269C3.14641 81.6007 3.27726 81.6142 3.39617 81.6656C3.51509 81.7171 3.61673 81.8042 3.68824 81.9161C3.75974 82.0279 3.79791 82.1594 3.79791 82.2939C3.7992 82.3835 3.78325 82.4726 3.751 82.5557C3.71876 82.6388 3.67087 82.7143 3.61018 82.7777C3.54949 82.8411 3.47723 82.8911 3.39769 82.9248C3.31815 82.9585 3.23295 82.9752 3.14713 82.9739V82.9739Z" fill="#303030"/>
<path d="M0.39088 88.3988L2.86959 87.3988C2.86959 87.2188 2.92701 87.0388 2.97487 86.8488L3.44381 85.0388L1.4149 84.4888L1.59674 83.7788L8.06627 85.5888L7.41549 88.1188C7.26889 88.857 6.8753 89.5165 6.30533 89.9788C6.04344 90.1689 5.74302 90.293 5.42758 90.3416C5.11213 90.3902 4.7902 90.3618 4.48697 90.2588C4.02514 90.1541 3.61129 89.888 3.31375 89.5044C3.01621 89.1208 2.85278 88.6426 2.85045 88.1488L0.209045 89.1488L0.39088 88.3988ZM3.59693 88.6788C3.70905 88.8913 3.86113 89.078 4.04404 89.2275C4.22695 89.377 4.4369 89.4864 4.66129 89.549C4.88568 89.6116 5.11986 89.6261 5.34976 89.5917C5.57965 89.5573 5.80052 89.4747 5.99908 89.3488C6.4215 88.9943 6.70978 88.4946 6.81256 87.9388L7.27194 86.1388L4.0276 85.2288L3.56822 87.0288C3.39166 87.5652 3.40183 88.1495 3.59693 88.6788V88.6788Z" fill="#303030"/>
<path d="M1.77858 91.7447L2.00826 90.3647L2.45807 90.4347L2.19967 91.8547L3.47252 91.3647L3.62565 91.8047L2.33365 92.2647L3.39596 93.2047L3.08971 93.5647L2.06569 92.5647L1.82643 93.9847L1.36705 93.8947L1.63502 92.4747L0.3526 92.9547L0.209045 92.5647L1.49147 92.0947L0.429163 91.1647L0.744983 90.8047L1.77858 91.7447Z" fill="#303030"/>
<path d="M0.69713 98.3246L0.209045 97.9346L3.08014 93.9846L8.42038 98.2146L5.64498 102.045L5.1569 101.655L7.50162 98.4246L5.58756 96.9146L3.49166 99.8046L3.01314 99.4246L5.1569 96.5346L3.17584 94.9646L0.69713 98.3246Z" fill="#303030"/>
<path d="M4.44869 102.495L4.87936 102.045L8.18112 105.595L3.39596 110.475L0.209045 107.035L0.64928 106.585L3.35768 109.495L4.9942 107.765L2.62076 105.185L3.08014 104.725L5.50143 107.325L7.28151 105.515L4.44869 102.495Z" fill="#303030"/>
<path d="M3.3212 110.935L3.5796 113.685C3.74375 113.758 3.90354 113.841 4.05812 113.935L5.61808 114.875L6.67081 112.935L7.29288 113.305L3.94327 119.335L1.76124 118.025C1.11629 117.686 0.607492 117.119 0.325696 116.425C0.221662 116.112 0.186563 115.778 0.22302 115.449C0.259476 115.12 0.366545 114.804 0.536242 114.525C0.758698 114.086 1.11134 113.735 1.54113 113.525C1.9776 113.336 2.46037 113.297 2.91925 113.415L2.64171 110.475L3.3212 110.935ZM2.23019 114.095C2.00541 114.154 1.79432 114.259 1.60956 114.405C1.42479 114.552 1.27015 114.735 1.15488 114.945C1.03962 115.155 0.966105 115.388 0.938738 115.628C0.911372 115.868 0.930718 116.112 0.995618 116.345C1.21995 116.862 1.60883 117.283 2.0962 117.535L3.63702 118.465L5.31183 115.465L3.77101 114.535C3.32813 114.188 2.78285 114.014 2.23019 114.045V114.095Z" fill="#303030"/>
<path d="M1.5776 121.325L0.209045 121.405V120.925L1.5776 120.915L0.840686 119.725L1.21393 119.475L1.94127 120.675L2.53463 119.335L2.94616 119.565L2.29537 120.825L3.66393 120.745V121.235H2.27623L3.01315 122.425L2.63991 122.675L1.91256 121.475L1.28092 122.775L0.878968 122.535L1.5776 121.325Z" fill="#303030"/>
<path d="M0.457872 123.828L1.61588 124.498C1.81002 124.108 2.08098 123.766 2.41089 123.494C2.74081 123.221 3.1222 123.025 3.52994 122.918C3.9103 122.794 4.31034 122.75 4.70709 122.788C5.05134 122.816 5.38202 122.94 5.66412 123.148C5.91913 123.349 6.10674 123.629 6.20006 123.948C6.31541 124.343 6.2951 124.767 6.14264 125.148C5.90249 125.665 5.57874 126.136 5.18561 126.538C5.50113 126.715 5.79378 126.934 6.0565 127.188C6.23697 127.383 6.37134 127.619 6.44889 127.878C6.49793 128.08 6.50097 128.291 6.45775 128.494C6.41454 128.697 6.32627 128.887 6.20006 129.048C5.94457 129.433 5.56338 129.706 5.12819 129.818C4.74604 129.97 4.32362 129.97 3.94147 129.818C3.77154 129.742 3.62087 129.625 3.50131 129.478C3.38175 129.33 3.29654 129.156 3.2524 128.968C3.15206 128.638 3.17602 128.28 3.3194 127.968C3.53907 127.513 3.82659 127.098 4.17115 126.738L1.86471 125.398C1.7767 125.869 1.75734 126.351 1.80729 126.828H1.2235C1.18419 126.241 1.24908 125.651 1.4149 125.088L0.209045 124.388L0.457872 123.828ZM2.12311 124.828L4.65924 126.298C4.99161 125.966 5.26679 125.577 5.47272 125.148C5.57786 124.858 5.57786 124.538 5.47272 124.248C5.42932 124.075 5.34537 123.915 5.22842 123.785C5.11148 123.654 4.96522 123.555 4.8028 123.498C4.40549 123.358 3.9751 123.358 3.57779 123.498C3.25313 123.587 2.95119 123.75 2.69324 123.975C2.4353 124.199 2.22761 124.48 2.08483 124.798L2.12311 124.828ZM5.72154 128.828C5.78408 128.717 5.82326 128.594 5.83647 128.467C5.84967 128.339 5.83659 128.21 5.79811 128.088C5.73948 127.89 5.63414 127.712 5.49186 127.568C5.24825 127.353 4.9817 127.169 4.69752 127.018C4.40736 127.318 4.15345 127.654 3.94147 128.018C3.82577 128.245 3.79835 128.51 3.8649 128.758C3.89526 128.872 3.94848 128.979 4.02107 129.07C4.09365 129.161 4.18395 129.236 4.286 129.288C4.52965 129.384 4.7984 129.384 5.04205 129.288C5.30225 129.215 5.52943 129.049 5.68326 128.818L5.72154 128.828Z" fill="#303030"/>
<path d="M6.24554 131.027C6.68318 131.463 6.99635 132.017 7.15013 132.628C7.30391 133.239 7.29224 133.883 7.11644 134.487C6.95919 135.106 6.6451 135.669 6.20726 136.117C5.78174 136.554 5.24824 136.859 4.66644 136.997C4.05269 137.142 3.41382 137.121 2.8098 136.937C2.20782 136.783 1.654 136.47 1.20199 136.027C0.770875 135.597 0.462722 135.05 0.311951 134.447C0.164772 133.824 0.175635 133.172 0.343469 132.554C0.511302 131.937 0.830304 131.376 1.26898 130.927C1.68693 130.491 2.2091 130.18 2.78109 130.027C3.39166 129.883 4.02735 129.903 4.62816 130.087C5.23634 130.248 5.79381 130.572 6.24554 131.027ZM2.98207 130.677C2.51393 130.791 2.08602 131.04 1.7475 131.397C1.39497 131.764 1.1437 132.223 1.02016 132.727C0.886695 133.227 0.886695 133.756 1.02016 134.257C1.13303 134.744 1.3752 135.188 1.71879 135.537C2.07912 135.905 2.52404 136.17 3.01078 136.307C3.49748 136.436 4.00748 136.436 4.49418 136.307C4.9627 136.187 5.39211 135.938 5.73832 135.587C6.08898 135.219 6.33995 134.76 6.46566 134.257C6.59944 133.753 6.59944 133.221 6.46566 132.717C6.34318 132.232 6.09864 131.79 5.75746 131.437C5.39523 131.068 4.94623 130.806 4.4559 130.677C3.97366 130.538 3.4643 130.538 2.98207 130.677Z" fill="#303030"/>
<path d="M0.209045 144.092L0.343031 137.092H1.02252L0.917248 142.692L3.63522 138.032H3.97018L6.51588 142.772L6.61158 137.202H7.29107L7.16666 144.202H6.58287L3.7692 138.972L0.792835 144.102L0.209045 144.092Z" fill="#303030"/>
</g>
<defs>
<clipPath id="clip0_1_6">
<rect width="26.8235" height="166.944" fill="white" transform="translate(0.209045 -22.7422)"/>
</clipPath>
</defs>
</svg>
